HIERARCHY
ROOT joint_Root
{
	OFFSET 0.0 0.0 0.0
	CHANNELS 6 Xposition Yposition Zposition Zrotation Xrotation Yrotation 
	JOINT Hips
	{
		OFFSET 4.5925 91.4895 -427.239
		CHANNELS 6 Xposition Yposition Zposition Zrotation Xrotation Yrotation 
		JOINT Spine
		{
			OFFSET 15.7357 0.0 0.0
			CHANNELS 6 Xposition Yposition Zposition Zrotation Xrotation Yrotation 
			JOINT Chest
			{
				OFFSET 8.98455 -0.406207 0.0
				CHANNELS 6 Xposition Yposition Zposition Zrotation Xrotation Yrotation 
				JOINT Neck
				{
					OFFSET 16.3773 0.0 0.0
					CHANNELS 6 Xposition Yposition Zposition Zrotation Xrotation Yrotation 
					JOINT Head
					{
						OFFSET 6.45672 0.0 0.0
						CHANNELS 6 Xposition Yposition Zposition Zrotation Xrotation Yrotation 
						End Site
						{
							OFFSET 0.0 0.0 0.0
						}
					}
				}
				JOINT Shoulder_L
				{
					OFFSET 12.9942 -0.242716 4.98039
					CHANNELS 6 Xposition Yposition Zposition Zrotation Xrotation Yrotation 
					JOINT UpperArm_L
					{
						OFFSET 5.34809 0.0 0.0
						CHANNELS 6 Xposition Yposition Zposition Zrotation Xrotation Yrotation 
						JOINT LowerArm_L
						{
							OFFSET 24.3286 1.87007e-05 0.0
							CHANNELS 6 Xposition Yposition Zposition Zrotation Xrotation Yrotation 
							JOINT Hand_L
							{
								OFFSET 22.2916 0.0 0.0
								CHANNELS 6 Xposition Yposition Zposition Zrotation Xrotation Yrotation 
								End Site
								{
									OFFSET 0.0 0.0 0.0
								}
							}
						}
					}
				}
				JOINT Shoulder_R
				{
					OFFSET 12.9945 -0.242716 -4.98039
					CHANNELS 6 Xposition Yposition Zposition Zrotation Xrotation Yrotation 
					JOINT UpperArm_R
					{
						OFFSET -5.34813 0.0 0.0
						CHANNELS 6 Xposition Yposition Zposition Zrotation Xrotation Yrotation 
						JOINT LowerArm_R
						{
							OFFSET -24.3289 0.000322201 0.0
							CHANNELS 6 Xposition Yposition Zposition Zrotation Xrotation Yrotation 
							JOINT Hand_R
							{
								OFFSET -22.2915 -0.000108084 0.0
								CHANNELS 6 Xposition Yposition Zposition Zrotation Xrotation Yrotation 
								End Site
								{
									OFFSET 0.0 0.0 0.0
								}
							}
						}
					}
				}
			}
		}
		JOINT UpperLeg_L
		{
			OFFSET -2.19248 -6.46944 0.0
			CHANNELS 6 Xposition Yposition Zposition Zrotation Xrotation Yrotation 
			JOINT LowerLeg_L
			{
				OFFSET 39.0811 0.0 -1.23785e-05
				CHANNELS 6 Xposition Yposition Zposition Zrotation Xrotation Yrotation 
				JOINT Foot_L
				{
					OFFSET 40.9854 0.0 -1.26872e-05
					CHANNELS 6 Xposition Yposition Zposition Zrotation Xrotation Yrotation 
					JOINT Toes_L
					{
						OFFSET 11.7543 0.0 0.0
						CHANNELS 6 Xposition Yposition Zposition Zrotation Xrotation Yrotation 
						End Site
						{
							OFFSET 0.0 0.0 0.0
						}
					}
				}
			}
		}
		JOINT UpperLeg_R
		{
			OFFSET -2.19251 6.46944 0.0
			CHANNELS 6 Xposition Yposition Zposition Zrotation Xrotation Yrotation 
			JOINT LowerLeg_R
			{
				OFFSET -39.0811 -0.00228153 -0.0401928
				CHANNELS 6 Xposition Yposition Zposition Zrotation Xrotation Yrotation 
				JOINT Foot_R
				{
					OFFSET -40.9854 0.0 0.0
					CHANNELS 6 Xposition Yposition Zposition Zrotation Xrotation Yrotation 
					JOINT Toes_R
					{
						OFFSET -11.7543 0.0 0.0
						CHANNELS 6 Xposition Yposition Zposition Zrotation Xrotation Yrotation 
						End Site
						{
							OFFSET 0.0 0.0 0.0
						}
					}
				}
			}
		}
	}
}
MOTION
Frames:	9
Frame Time:	0.0333333
0.000000 0.000000 0.000000 0.000000 0.000000 -0.000000 134.150000 92.180800 145.249000 101.062000 -52.837800 4.109970 15.735700 0.000005 -0.000001 120.479000 83.289300 -121.402000 8.984550 -0.406207 -0.000000 3.879480 6.829550 -2.076670 16.377300 -0.000001 -0.000001 2.486600 -12.002800 4.901210 6.456720 -0.000001 -0.000000 -3.357610 -17.709500 5.092300 12.994200 -0.242716 4.980390 -85.371600 -12.053300 -68.809500 5.348090 -0.000007 -0.000001 -75.804500 48.016800 42.657100 24.328600 0.000019 0.000005 8.883440 1.505860 -80.450400 22.291600 -0.000001 0.000005 2.450790 5.510400 -6.959540 12.994500 -0.242716 -4.980390 90.336300 -1.934790 -80.135600 -5.348130 -0.000001 -0.000004 -50.698800 41.326600 -56.404200 -24.328900 0.000322 -0.000009 -8.949170 6.975890 -127.640000 -22.291500 -0.000108 -0.000004 15.154900 5.536080 -8.066470 -2.192480 -6.469440 -0.000000 -174.503000 -1.251290 -24.548200 39.081100 -0.000007 -0.000012 0.027841 -0.046882 30.703500 40.985400 -0.000006 -0.000013 3.317260 -2.475130 -63.957500 11.754300 -0.000000 0.000003 -0.007284 -0.082090 -19.918900 -2.192510 6.469440 -0.000001 176.792000 9.568380 -175.220000 -39.081100 -0.002282 -0.040193 0.040818 -0.097966 20.945200 -40.985400 0.000008 0.000006 24.803200 26.494400 -68.762600 -11.754300 -0.000006 -0.000006 -0.056862 -0.321435 -29.836400
0.000000 0.000000 0.000000 0.000000 0.000000 -0.000000 132.324000 91.072700 148.924000 100.182000 -57.058200 3.499580 15.735700 0.000005 -0.000001 124.252000 83.040100 -124.933000 8.984550 -0.406207 -0.000000 3.816720 7.847490 -1.623240 16.377300 -0.000001 -0.000001 1.768320 -11.168500 3.778420 6.456720 -0.000001 -0.000000 -3.761360 -17.175200 4.329390 12.994200 -0.242716 4.980390 -84.993700 -12.846900 -68.496900 5.348090 -0.000007 -0.000001 -74.011400 43.853000 40.564900 24.328600 0.000019 0.000005 9.804770 1.012720 -84.158000 22.291600 -0.000001 0.000005 2.899910 5.503180 -6.662790 12.994500 -0.242716 -4.980390 90.491000 -2.911120 -80.421700 -5.348130 -0.000001 -0.000004 -51.162700 40.973700 -54.147900 -24.328900 0.000322 -0.000009 -11.010300 8.586450 -127.504000 -22.291500 -0.000108 -0.000004 15.775400 5.545330 -8.484040 -2.192480 -6.469440 -0.000000 -171.657000 -3.094650 -23.423800 39.081100 -0.000007 -0.000012 -0.043830 0.105807 22.501600 40.985400 -0.000006 -0.000013 -7.319520 6.745130 -62.914100 11.754300 -0.000000 0.000003 -0.007783 -0.086264 -20.089300 -2.192510 6.469440 -0.000001 176.446000 5.885820 -174.216000 -39.081100 -0.002282 -0.040193 0.051181 -0.110997 23.327400 -40.985400 0.000008 0.000006 25.664300 24.165800 -69.895800 -11.754300 -0.000006 -0.000006 -0.077133 -0.383845 -32.497000
0.000000 0.000000 0.000000 0.000000 0.000000 -0.000000 130.438000 89.425600 152.930000 101.947000 -60.270700 5.472800 15.735700 0.000005 -0.000001 122.854000 82.840900 -123.727000 8.984550 -0.406207 -0.000000 4.354760 7.781040 -2.042120 16.377300 -0.000001 -0.000001 1.079950 -10.029200 2.775270 6.456720 -0.000001 -0.000000 -4.427580 -16.671200 4.164260 12.994200 -0.242716 4.980390 -85.475900 -11.581300 -68.489100 5.348090 -0.000007 -0.000001 -70.389400 38.460100 35.451500 24.328600 0.000019 0.000005 13.670100 0.796204 -86.722600 22.291600 -0.000001 0.000005 4.314270 5.494900 -6.328980 12.994500 -0.242716 -4.980390 90.294900 -1.867260 -81.028500 -5.348130 -0.000001 -0.000004 -51.679500 41.807600 -48.644100 -24.328900 0.000322 -0.000009 -12.761200 8.687080 -123.700000 -22.291500 -0.000108 -0.000004 16.265600 5.554500 -8.919910 -2.192480 -6.469440 -0.000000 -172.332000 -7.462320 -23.795800 39.081100 -0.000007 -0.000012 -0.075686 0.184245 22.332400 40.985400 -0.000006 -0.000013 -12.567500 11.235800 -60.266600 11.754300 -0.000000 0.000003 -0.007639 -0.085068 -20.040500 -2.192510 6.469440 -0.000001 175.001000 0.518033 -173.135000 -39.081100 -0.002282 -0.040193 0.054312 -0.100243 26.967100 -40.985400 0.000008 0.000006 25.521200 19.821500 -71.876300 -11.754300 -0.000006 -0.000006 -0.092388 -0.425266 -34.286500
0.000000 0.000000 0.000000 0.000000 0.000000 -0.000000 128.177000 87.411500 157.221000 104.743000 -61.059100 8.966630 15.735700 0.000005 -0.000001 114.932000 82.865100 -116.103000 8.984550 -0.406207 -0.000000 5.259870 6.027960 -2.619210 16.377300 -0.000001 -0.000001 1.027590 -9.694080 2.442510 6.456720 -0.000001 -0.000000 -5.659570 -15.997400 3.885420 12.994200 -0.242716 4.980390 -86.943000 -8.122210 -69.297000 5.348090 -0.000007 -0.000001 -65.948000 31.647400 28.640400 24.328600 0.000019 0.000005 21.234100 0.530292 -88.630600 22.291600 -0.000001 0.000005 5.305700 5.500330 -6.546140 12.994500 -0.242716 -4.980390 89.874900 0.851362 -81.618900 -5.348130 -0.000001 -0.000004 -54.278600 43.036300 -38.443200 -24.328900 0.000322 -0.000009 -13.730900 6.854960 -116.033000 -22.291500 -0.000108 -0.000004 16.777600 5.560240 -9.194900 -2.192480 -6.469440 -0.000000 -174.789000 -10.714100 -26.684200 39.081100 -0.000007 -0.000012 -0.191832 0.322057 30.780300 40.985400 -0.000006 -0.000013 -11.214500 7.710660 -56.283100 11.754300 -0.000000 0.000003 -0.004446 -0.056006 -18.855200 -2.192510 6.469440 -0.000001 173.030000 -2.891360 -171.724000 -39.081100 -0.002282 -0.040193 0.055718 -0.083461 32.132200 -40.985400 0.000008 0.000006 25.298700 16.347200 -73.212700 -11.754300 -0.000006 -0.000006 -0.132940 -0.519876 -38.460600
0.000000 0.000000 0.000000 0.000000 0.000000 -0.000000 125.382000 85.499700 161.547000 106.483000 -60.119800 11.873200 15.735700 0.000005 -0.000001 102.370000 83.047300 -103.674000 8.984550 -0.406207 -0.000000 5.858260 2.992840 -2.760470 16.377300 -0.000001 -0.000001 1.241400 -10.184400 3.159310 6.456720 -0.000001 -0.000000 -6.319320 -15.133300 2.916490 12.994200 -0.242716 4.980390 -89.279600 -1.951400 -69.721200 5.348090 -0.000007 -0.000001 -60.919800 25.981300 20.303200 24.328600 0.000019 0.000005 23.151700 -0.193713 -90.454900 22.291600 -0.000001 0.000005 7.820740 5.506580 -6.793890 12.994500 -0.242716 -4.980390 89.250200 4.952720 -81.387000 -5.348130 -0.000001 -0.000004 -57.790300 42.991100 -24.800900 -24.328900 0.000322 -0.000009 -14.899700 3.627240 -103.366000 -22.291500 -0.000108 -0.000004 17.945700 5.564710 -9.420530 -2.192480 -6.469440 -0.000000 -176.552000 -11.984600 -28.405300 39.081100 -0.000007 -0.000012 -0.265886 0.287211 42.792600 40.985400 -0.000006 -0.000013 -8.510570 10.667800 -65.030000 11.754300 -0.000000 0.000003 -0.000030 -0.000358 -16.591500 -2.192510 6.469440 -0.000001 171.295000 -3.337100 -172.088000 -39.081100 -0.002282 -0.040193 0.061610 -0.067157 40.978400 -40.985400 0.000008 0.000006 24.849000 15.586400 -69.856800 -11.754300 -0.000006 -0.000006 -0.253649 -0.727571 -48.211900
0.000000 0.000000 0.000000 0.000000 0.000000 -0.000000 122.422000 84.584100 165.408000 106.283000 -58.597200 14.174300 15.735700 0.000005 -0.000001 91.961800 82.477300 -93.288300 8.984550 -0.406207 -0.000000 7.278180 0.518801 -2.683300 16.377300 -0.000001 -0.000001 1.150760 -10.893400 3.126890 6.456720 -0.000001 -0.000000 -5.673700 -15.601200 4.205960 12.994200 -0.242716 4.980390 -91.428000 3.783350 -69.298600 5.348090 -0.000007 -0.000001 -56.548000 25.989900 4.855090 24.328600 0.000019 0.000005 17.576500 0.101335 -89.679200 22.291600 -0.000001 0.000005 10.934400 5.523810 -7.524130 12.994500 -0.242716 -4.980390 88.415100 9.049210 -80.025100 -5.348130 -0.000001 -0.000004 -62.858700 38.259100 -10.789100 -24.328900 0.000322 -0.000009 -12.978200 -1.651860 -82.796100 -22.291500 -0.000108 -0.000004 18.852500 5.565520 -9.498600 -2.192480 -6.469440 -0.000000 -176.925000 -9.384190 -25.318800 39.081100 -0.000007 -0.000012 -0.248499 0.222890 48.110300 40.985400 -0.000006 -0.000013 -7.160160 10.279200 -71.288000 11.754300 -0.000000 0.000003 -0.000240 -0.002154 -16.658400 -2.192510 6.469440 -0.000001 170.204000 -2.071930 -176.450000 -39.081100 -0.002282 -0.040193 0.094410 -0.064579 54.692200 -40.985400 0.000008 0.000006 18.708900 19.100500 -56.760700 -11.754300 -0.000006 -0.000006 -0.266390 -0.745443 -49.101800
0.000000 0.000000 0.000000 0.000000 0.000000 -0.000000 119.847000 84.468600 168.314000 107.227000 -59.114200 15.857100 15.735700 0.000005 -0.000001 91.204500 82.319500 -92.790000 8.984550 -0.406207 -0.000000 7.598160 0.323944 -3.189190 16.377300 -0.000001 -0.000001 2.145680 -11.864000 3.331930 6.456720 -0.000001 -0.000000 -5.018320 -16.582000 4.803180 12.994200 -0.242716 4.980390 -92.183800 6.167390 -70.457500 5.348090 -0.000007 -0.000001 -55.184100 28.345800 -13.454800 24.328600 0.000019 0.000005 18.466200 -0.200838 -90.598700 22.291600 -0.000001 0.000005 10.182200 5.546900 -8.568320 12.994500 -0.242716 -4.980390 88.235600 9.681090 -79.619500 -5.348130 -0.000001 -0.000004 -68.296900 29.411800 -0.051299 -24.328900 0.000322 -0.000009 -8.843180 -5.428220 -58.790600 -22.291500 -0.000108 -0.000004 26.888300 5.499450 -6.568670 -2.192480 -6.469440 -0.000000 -177.546000 -9.508760 -21.849200 39.081100 -0.000007 -0.000012 -0.278387 0.241912 49.010800 40.985400 -0.000006 -0.000013 -6.332600 10.000500 -74.912200 11.754300 -0.000000 0.000003 -0.000278 -0.002438 -16.668600 -2.192510 6.469440 -0.000001 169.584000 -3.624670 173.509000 -39.081100 -0.002282 -0.040193 0.217140 -0.085119 68.310400 -40.985400 0.000008 0.000006 2.840970 17.045800 -36.926600 -11.754300 -0.000006 -0.000006 -0.043382 -0.273319 -27.810600
0.000000 0.000000 0.000000 0.000000 0.000000 -0.000000 116.885000 85.216900 170.435000 105.807000 -59.304200 15.081500 15.735700 0.000005 -0.000001 87.212400 82.236700 -88.584200 8.984550 -0.406207 -0.000000 7.735080 -0.751705 -2.689970 16.377300 -0.000001 -0.000001 2.027920 -12.503100 3.001480 6.456720 -0.000001 -0.000000 -3.887340 -16.822200 4.749670 12.994200 -0.242716 4.980390 -91.371400 4.379670 -72.607600 5.348090 -0.000007 -0.000001 -58.667400 30.546000 -28.170300 24.328600 0.000019 0.000005 19.247600 -1.553030 -94.438800 22.291600 -0.000001 0.000005 10.414000 5.540960 -8.305580 12.994500 -0.242716 -4.980390 88.250100 9.384690 -79.386900 -5.348130 -0.000001 -0.000004 -68.338800 24.970800 11.108600 -24.328900 0.000322 -0.000009 -26.173200 -17.048700 -59.153100 -22.291500 -0.000108 -0.000004 28.378600 5.560410 -9.245660 -2.192480 -6.469440 -0.000000 -176.796000 -8.221410 -17.073600 39.081100 -0.000007 -0.000012 -0.296630 0.285144 46.131700 40.985400 -0.000006 -0.000013 -6.633030 8.899640 -76.511700 11.754300 -0.000000 0.000003 -0.000239 -0.002151 -16.658300 -2.192510 6.469440 -0.000001 171.353000 -2.497750 165.882000 -39.081100 -0.002282 -0.040193 0.297113 -0.068350 76.918100 -40.985400 0.000008 0.000006 1.303030 8.059150 -36.912900 -11.754300 -0.000006 -0.000006 -0.023335 -0.185105 -24.142600
0.000000 0.000000 0.000000 0.000000 0.000000 -0.000000 113.704000 86.718700 172.043000 102.274000 -58.652400 11.474900 15.735700 0.000005 -0.000001 74.539400 82.107100 -75.197300 8.984550 -0.406207 -0.000000 7.439730 -4.190230 -1.042230 16.377300 -0.000001 -0.000001 1.434690 -12.297200 1.959710 6.456720 -0.000001 -0.000000 -4.661630 -14.435100 4.446880 12.994200 -0.242716 4.980390 -90.022600 0.077894 -74.045500 5.348090 -0.000007 -0.000001 -62.506300 32.187400 -38.421700 24.328600 0.000019 0.000005 15.336400 -3.000800 -100.831000 22.291600 -0.000001 0.000005 11.808500 5.508890 -6.914340 12.994500 -0.242716 -4.980390 88.486600 6.846790 -77.498300 -5.348130 -0.000001 -0.000004 -66.642900 30.070700 19.564400 -24.328900 0.000322 -0.000009 -24.883100 -11.879800 -66.108900 -22.291500 -0.000108 -0.000004 25.485600 5.609410 -12.009900 -2.192480 -6.469440 -0.000000 -175.000000 -6.984010 -11.804100 39.081100 -0.000007 -0.000012 -0.292390 0.354467 39.518900 40.985400 -0.000006 -0.000013 -7.220200 8.400560 -75.780800 11.754300 -0.000000 0.000003 -0.000189 -0.001769 -16.644400 -2.192510 6.469440 -0.000001 174.764000 1.778870 159.751000 -39.081100 -0.002282 -0.040193 0.255901 -0.045669 79.768800 -40.985400 0.000008 0.000006 8.563430 3.109010 -45.833300 -11.754300 -0.000006 -0.000006 -0.020835 -0.171869 -23.596600
